<svg xmlns="http://www.w3.org/2000/svg" fill="none" viewBox="0 0 189 112">
  <path d="M79.47 110.118c-13.517-2.372-24.966-7.221-35.695-13.948-1.16-.726-2.938-1.104-4.274-.838-10.91 2.16-21.78 4.536-32.671 6.778-4.143.853-7.4-2.263-5.782-5.712.649-1.383 2.578-2.685 4.152-3.044a880.161 880.161 0 0 1 30.465-6.413c2.687-.517 3.88-1.73 4.522-4.26 2.538-9.972 6.306-19.488 11.155-28.569 16.787-31.439 43.294-48.52 78.6-52.394 17.536-1.932 34.86-.206 51.936 4.127.809.206 1.584.542 2.372.806 3.76 1.272 4.888 3.327 3.532 6.997-2.72 7.356-5.347 14.763-8.401 21.98-7.161 16.917-15.931 32.92-28.225 46.766-13.386 15.076-29.442 25.585-49.958 28.249-7.614.987-15.19.738-21.733-.526l.005.001Zm26.326-93.737c-31.633 12.631-47.69 37.175-56.795 67.984 1.157-.219 1.884-.35 2.602-.488 14.924-2.956 29.072-8.158 42.828-14.543 1.633-.756 2.313-1.703 2.616-3.441 2.632-15.234 5.368-30.45 8.072-45.67l.682-3.841-.005-.001Zm.757 46.752c25.154-13.714 47.39-30.282 68.23-49.533-1.381-.313-2.247-.586-3.134-.704-7.363-.935-14.705-2.182-22.095-2.675a106.02 106.02 0 0 0-32.263 2.815c-.836.202-1.962 1.172-2.105 1.944-2.912 15.817-5.702 31.656-8.632 48.148l-.001.005Zm-14.864 17.55c1.094.617 1.86 1.064 2.643 1.486 7.746 4.145 15.525 8.235 23.23 12.457 1.655.91 2.908.89 4.558-.026 11.211-6.25 20.2-14.917 27.852-25.071.194-.26.237-.63.408-1.115-8.57-1.522-16.974-3.054-25.395-4.454-.872-.144-1.951.303-2.8.74-9.46 4.893-18.894 9.83-28.332 14.761-.62.326-1.217.683-2.164 1.221ZM55.636 92.398c18.92 10.194 40.113 11.935 52.338 7.296-8.972-4.787-17.761-9.52-26.614-14.121-.748-.388-1.986-.133-2.898.14-3.9 1.184-7.741 2.57-11.65 3.73-3.517 1.043-7.102 1.887-11.176 2.955Zm79.95-35.633c6.176 1.097 12.273 2.09 18.325 3.311 1.88.38 2.928-.022 3.77-1.693 4.435-8.792 8.944-17.555 13.384-26.346.527-1.048.813-2.213 1.229-3.371-12.289 9.41-24.374 18.658-36.708 28.099Z"/>
</svg>