<svg xmlns="http://www.w3.org/2000/svg" fill="none" viewBox="0 0 167 205">
  <g clip-path="url(#a)">
    <path d="M148.311 205H29.47c-1.062-.313-2.128-.614-3.186-.947-8.834-2.751-14.994-10.873-15.218-20.162-.085-3.442-.012-6.887-.012-10.348-1.632-.133-2.99-.077-4.26-.381-4.337-1.039-6.778-4.597-6.786-9.807-.016-16.95-.008-33.896 0-50.846 0-.794.096-1.596.204-2.386.59-4.44 4.08-7.529 8.593-7.613.698-.012 1.395 0 2.204 0v-2.9c.017-26.223-.064-52.446.085-78.67C11.162 9.51 20.94.04 32.355.025a21774.2 21774.2 0 0 1 81.225.031c.926 0 2.08.49 2.737 1.143 16.477 16.353 32.889 32.77 49.349 49.138.986.982 1.343 1.969 1.335 3.336-.052 9.41-.028 18.816-.028 28.225 0 33.294-.016 66.593.012 99.887.008 7.998-2.725 14.716-9.459 19.216-2.741 1.829-6.124 2.695-9.214 3.999ZM24.584 173.402c0 3.754-.128 7.336.04 10.902.137 2.884 1.768 5.11 4.365 6.221 1.647.706 3.595.978 5.406.982 26.272.061 52.544.04 78.815.04 10.2 0 20.404.081 30.604-.068 2.036-.028 4.285-.541 6.032-1.54 2.906-1.66 3.691-4.677 3.679-7.937-.14-41.032-.256-82.063-.388-123.09 0-.586-.064-1.167-.109-1.966h-2.244c-8 .049-16.003.237-24.003.077-2.725-.056-5.655-.502-8.1-1.625-6.152-2.823-8.657-8.154-8.685-14.744-.032-8.338-.008-16.681-.008-25.02v-2.21c-.79-.048-1.311-.108-1.832-.104-24.804.044-49.61.092-74.414.16-1.118 0-2.284.077-3.35.386-3.972 1.147-6 4.303-6.004 9.269-.012 25.818-.004 51.64 0 77.458 0 .581.072 1.163.12 1.905h2.489c33.674 0 67.344.076 101.018-.072 5.748-.024 9.98 4.187 9.924 9.995-.164 17.01-.056 34.024-.068 51.038 0 .931-.004 1.881-.193 2.784-.954 4.584-4.412 7.151-9.643 7.151-33.674.008-67.344.004-101.018.004h-2.44l.007.004Zm30.584-16.083c5.223 0 10.292.349 15.294-.093 5.487-.485 10.5-2.474 13.828-7.323 2.76-4.027 3.434-8.552 3.258-13.325-.3-8.21-5.731-14.347-13.811-15.69-6.18-1.027-12.316-.646-18.569.1v36.335-.004Zm-23.754-12.767c3.298-.409 6.316-.497 9.182-1.195 6.044-1.472 9.13-5.892 8.93-12.201-.173-5.435-3.516-9.137-9.504-10.368-5.562-1.144-11.113-.402-16.756.172v36.274h8.148v-12.686.004Zm70.201-8.824v-8.471h14.024v-6.642H93.375v36.615h8.236v-14.756h13.018v-6.746h-13.014Z"/>
    <path d="M78.819 138.428c-.128 8.771-5.226 13.496-13.815 12.875-1.143-.085-1.636-.381-1.627-1.633.048-7.127 0-14.255.068-21.382.004-.541.517-1.424.974-1.564 3.971-1.227 9.795.718 12.256 3.971 1.447 1.913 2.188 4.588 2.144 7.733Zm-47.393-.289c0-3.879-.04-7.132.052-10.38.012-.414.693-1.091 1.13-1.156 1.174-.168 2.393-.132 3.583-.056 2.814.177 4.765 1.857 5.202 4.376.461 2.671-.87 5.463-3.45 6.277-1.964.618-4.12.618-6.517.939Z"/>
  </g>
  <defs>
    <clipPath id="a">
      <path d="M0 0h167v205H0z"/>
    </clipPath>
  </defs>
</svg>